<?xml version="1.0" encoding="UTF-8" standalone="no"?>
<svg
   version="1.1"
   width="809.11145"
   height="809.11133"
   id="svg1"
   xmlns="http://www.w3.org/2000/svg"
   xmlns:svg="http://www.w3.org/2000/svg">
  <defs
     id="defs1" />
  <path
     id="path2"
     style="fill:#f8f1eb;fill-opacity:1;fill-rule:evenodd;stroke-width:1.00157;stroke-opacity:0.579909"
     d="M 9.1796875e-5,-2.6953125e-5 V 809.11137 H 809.11149 V -2.6953125e-5 Z M 519.46889,171.97267 c 31.8558,-0.2761 64.2936,9.526 88.5879,30.2949 10.9763,9.7286 20.7896,19.849 28.4082,32.4434 0.4004,0.651 0.8004,1.3019 1.2129,1.9726 14.4477,23.677 21.5694,49.6377 21.416,77.3985 0,0.748 0,1.4969 -0.01,2.2675 -0.056,11.3151 -0.5952,22.0517 -3.5098,33.0391 -0.194,0.7908 -0.3879,1.5817 -0.5878,2.3965 -5.3218,21.4008 -14.9341,41.499 -28.0821,59.1894 -0.4426,0.6047 -0.8857,1.2092 -1.3418,1.8321 -7.9341,10.7585 -16.9789,20.4276 -26.2656,30.0215 -0.8596,0.8911 -1.7198,1.7831 -2.6055,2.7011 -3.7811,3.8481 -7.6993,7.4848 -11.791,11 -2.0611,1.7709 -4.1065,3.5545 -6.1465,5.3496 -7.0414,6.1786 -14.1607,12.1953 -21.5645,17.9356 -4.805,3.7262 -9.5299,7.5447 -14.2363,11.3945 -5.0532,4.128 -10.1417,8.1875 -15.3301,12.1446 -6.7648,5.1596 -13.3575,10.5152 -19.9453,15.8984 -3.1067,2.538 -6.2385,5.0408 -9.3867,7.5273 -12.5172,10.0096 -24.4,20.7052 -35.9707,31.7891 -0.5893,0.5645 -1.178,1.1293 -1.7852,1.7109 -7.4097,7.1432 -14.1117,14.6409 -20.5117,22.711 -0.772,0.9129 -1.5445,1.825 -2.3398,2.7656 -12.9,15.2681 -24.0572,32.8596 -31.6387,51.3867 h -2.125 c -0.5146,-1.054 -1.0283,-2.1074 -1.5586,-3.1933 -10.9902,-22.3606 -23.7028,-42.3936 -40.9141,-60.5157 -1.1349,-1.3215 -2.2637,-2.649 -3.3847,-3.9824 -8.6862,-9.9892 -18.3575,-19.3434 -28.4707,-27.873 -1.1769,-1.0295 -2.3517,-2.0608 -3.5254,-3.0938 -8.2571,-7.2521 -16.6895,-14.1842 -25.375,-20.914 -3.3106,-2.5837 -6.5814,-5.2161 -9.8555,-7.8458 -8.1974,-6.5739 -16.4569,-13.0681 -24.7344,-19.541 -48.3833,-37.8362 -96.0864,-78.8961 -111.7109,-140.7949 -0.1889,-0.7067 -0.3777,-1.4146 -0.5723,-2.1426 -5.3956,-20.8005 -4.9184,-47.2384 0.5723,-67.9394 0.1766,-0.6814 0.3533,-1.3624 0.5352,-2.0645 9.6943,-36.5599 32.4693,-68.3304 65.2539,-87.4804 10.5275,-5.9608 21.2958,-10.2763 32.9609,-13.4512 1.3154,-0.3614 2.631,-0.7233 3.9863,-1.0957 10.4613,-2.3176 20.9822,-2.4193 31.6524,-2.4883 1.1029,-0.013 1.1013,-0.012 2.2265,-0.025 29.8767,-0.2627 58.0669,9.9684 81.0606,29.0918 0.9786,0.8048 1.9565,1.6103 2.9648,2.4395 8.9088,7.6899 16.3449,16.7362 22.7227,26.6132 1.6373,2.877 1.6363,2.8767 4.043,3.8653 3.919,0.5226 5.706,0.506 8.8925,-1.9258 2.4797,-2.7955 4.5946,-5.858 6.7696,-8.8926 18.8909,-26.3061 48.2554,-44.4538 80.1543,-50.1289 7.1822,-1.1262 14.5021,-1.7273 21.8535,-1.791 z" />
</svg>
