<?xml version="1.0" encoding="UTF-8"?>
<svg version="1.1" xmlns="http://www.w3.org/2000/svg" width="512" height="512">
<path d="M0 0 C1.10810028 -0.01283524 2.21620056 -0.02567047 3.35787964 -0.03889465 C4.55994049 -0.04628159 5.76200134 -0.05366852 7.00048828 -0.0612793 C8.23115021 -0.06935104 9.46181213 -0.07742279 10.72976685 -0.08573914 C13.33740831 -0.09958836 15.94506797 -0.11030675 18.55273438 -0.11816406 C21.22809559 -0.12703365 23.90293901 -0.14792752 26.578125 -0.1796875 C30.42740664 -0.22219345 34.2760016 -0.2385101 38.12548828 -0.2487793 C39.32350067 -0.26628738 40.52151306 -0.28379547 41.75582886 -0.30183411 C42.87023346 -0.29890854 43.98463806 -0.29598297 45.1328125 -0.29296875 C46.11273163 -0.29883499 47.09265076 -0.30470123 48.1022644 -0.31074524 C51.5340303 0.33464158 52.54618534 1.44997284 54.69580078 4.17700195 C55.1879921 7.10550308 55.1879921 7.10550308 55.17681885 10.5803833 C55.1823175 11.89848999 55.18781616 13.21659668 55.19348145 14.574646 C55.1793256 16.03357298 55.16478637 17.49249628 55.14990234 18.95141602 C55.14877395 20.48893199 55.14940756 22.02645012 55.15167236 23.56396484 C55.15282079 27.73733725 55.12929102 31.9102505 55.10137653 36.08351612 C55.0763841 40.44503773 55.07402259 44.80656968 55.0692749 49.16815186 C55.05683876 57.42712382 55.02400856 65.68588419 54.98387694 73.94476295 C54.93917906 83.34730714 54.91717719 92.7498614 54.8970952 102.15248537 C54.85527646 121.4941109 54.78491204 140.83553942 54.69580078 160.17700195 C55.28071289 160.15605469 55.865625 160.13510742 56.46826172 160.11352539 C59.12726544 160.0302008 61.78599433 159.97829299 64.44580078 159.92700195 C65.36619141 159.89348633 66.28658203 159.8599707 67.23486328 159.82543945 C68.12431641 159.81254883 69.01376953 159.7996582 69.93017578 159.78637695 C70.74711914 159.76542969 71.5640625 159.74448242 72.40576172 159.72290039 C75.60665529 160.35761916 76.75163804 161.59466019 78.69580078 164.17700195 C79.19916534 166.62631702 79.19916534 166.62631702 79.20373535 169.41645813 C79.21501465 170.47729111 79.22629395 171.53812408 79.23791504 172.63110352 C79.22981812 173.79005127 79.22172119 174.94899902 79.21337891 176.14306641 C79.22038818 177.36801315 79.22739746 178.5929599 79.23461914 179.85502625 C79.24921717 183.21553991 79.24577768 186.57506932 79.2331028 189.93552804 C79.22295338 193.46526652 79.23237616 196.99496379 79.23864746 200.52470398 C79.24592876 206.46397402 79.23633466 212.40304531 79.21728516 218.34228516 C79.19562545 225.17344982 79.20248558 232.00413484 79.22459078 238.83528739 C79.24286364 244.72094532 79.24524237 250.60646041 79.2348361 256.49213761 C79.22865161 259.99758262 79.22762179 263.50280407 79.24098206 267.00823402 C79.32027622 291.0825156 77.27805566 311.97652813 59.89575195 330.1003418 C48.78093644 341.22847303 33.09373142 352.08517328 16.62155151 352.19023132 C15.87978668 352.17176651 15.13802185 352.1533017 14.3737793 352.13427734 C-1.47404303 351.85741435 -13.56873745 357.13578569 -27.74169922 363.73950195 C-30.05989971 364.78828233 -32.37983009 365.83324682 -34.70141602 366.87451172 C-39.35377244 368.96316758 -43.99938583 371.06581841 -48.64111328 373.17797852 C-58.21912089 377.51470001 -67.91180332 381.57205479 -77.61669922 385.61450195 C-79.23919518 386.2938375 -80.86151606 386.97359137 -82.48364258 387.65380859 C-86.08899483 389.16515373 -89.69596714 390.67254588 -93.30419922 392.17700195 C-96.4329869 389.29034536 -97.52331279 386.49780005 -98.99169922 382.48950195 C-99.42869141 381.31000977 -99.86568359 380.13051758 -100.31591797 378.9152832 C-100.80511719 377.55983398 -100.80511719 377.55983398 -101.30419922 376.17700195 C-99.98419922 375.84700195 -98.66419922 375.51700195 -97.30419922 375.17700195 C-97.36541077 363.91980305 -97.4425175 352.66283597 -97.53991413 341.40588856 C-97.5846401 336.17881118 -97.62389141 330.95181215 -97.65063477 325.72460938 C-97.67664539 320.6799847 -97.71703212 315.63566114 -97.76738548 310.59122276 C-97.78406933 308.66675245 -97.79557414 306.74223004 -97.80181313 304.81769753 C-97.81143765 302.1217963 -97.83947713 299.4266681 -97.87182617 296.73095703 C-97.87039108 295.93541916 -97.86895599 295.13988129 -97.86747742 294.32023621 C-97.94563275 289.71434491 -98.65770961 286.93706981 -101.30419922 283.17700195 C-101.3449707 281.08081055 -101.3449707 281.08081055 -100.30419922 279.17700195 C-97.87084961 277.44116211 -97.87084961 277.44116211 -94.65185547 275.71606445 C-94.07769394 275.40301361 -93.50353241 275.08996277 -92.91197205 274.76742554 C-91.07004933 273.76633015 -89.21900648 272.78372721 -87.36669922 271.80200195 C-86.15442648 271.14962592 -84.9428298 270.49599197 -83.73193359 269.84106445 C-82.84242004 269.36032471 -82.84242004 269.36032471 -81.93493652 268.86987305 C-80.16434332 267.91033202 -78.3962154 266.94636963 -76.62841797 265.98168945 C-74.54398674 264.85007109 -72.44895168 263.7375467 -70.33935547 262.65356445 C-64.20766269 259.3352366 -61.58508302 256.43037255 -59.17919922 249.92700195 C-56.14334225 242.69403973 -52.70244651 236.95617395 -47.30419922 231.17700195 C-46.70607422 230.52344727 -46.10794922 229.86989258 -45.49169922 229.1965332 C-41.17906193 224.68174104 -41.17906193 224.68174104 -38.6412667 223.21759766 C-35.95851656 221.60414175 -33.78212804 220.29361358 -32.52162385 217.34862769 C-32.08369936 215.13297093 -31.84956933 212.97452541 -31.67874146 210.72236633 C-31.58946971 209.88712618 -31.50019796 209.05188602 -31.40822101 208.19133556 C-31.12103883 205.43777167 -30.87903769 202.68215965 -30.63671875 199.92431641 C-30.44215969 197.97975012 -30.24452049 196.03548977 -30.04394722 194.09153461 C-29.63470507 190.08077209 -29.24287896 186.06889365 -28.86563873 182.05499649 C-28.35459882 176.64312054 -27.79275441 171.23802221 -27.20648193 165.83383179 C-26.48017107 159.12144685 -25.76591896 152.40806724 -25.07028198 145.69242859 C-24.32360912 138.48792079 -23.57259912 131.28389136 -22.81619263 124.08039856 C-22.7176369 123.14154869 -22.61908117 122.20269882 -22.51753891 121.23539895 C-22.31681987 119.32333735 -22.11609281 117.4112766 -21.91535783 115.49921668 C-20.58504034 102.82428747 -19.25918628 90.14891426 -17.94628906 77.47216797 C-17.04811703 68.80028155 -16.1416827 60.12930238 -15.22570622 51.45927793 C-14.74491663 46.90520226 -14.26835086 42.35077498 -13.80208969 37.795187 C-13.36715349 33.54598869 -12.92140251 29.2980661 -12.46728134 25.05087662 C-12.30316976 23.49767155 -12.14305565 21.94403801 -11.9872818 20.38997459 C-11.77389199 18.26703353 -11.54606603 16.14611284 -11.31466675 14.02507019 C-11.19118803 12.84018603 -11.06770931 11.65530188 -10.94048882 10.43451214 C-10.25029707 6.90104776 -9.13638504 4.26750282 -7.30419922 1.17700195 C-4.73734768 -0.10642382 -2.87418856 0.02892088 0 0 Z " fill="#000000" transform="translate(161.30419921875,111.822998046875)"/>
<path d="M0 0 C7.81100706 4.68660423 12.58220546 10.30090449 15.4375 18.9375 C16.79432588 24.9426806 17.79094173 30.99545081 18.78442383 37.06958008 C19.08580769 38.85733399 19.38821694 40.64491531 19.69159412 42.43233204 C20.47053837 47.039847 21.23503109 51.64962918 21.99511385 56.26028872 C22.5484953 59.60921602 23.1091167 62.95690432 23.67041594 66.30451208 C25.14909474 75.12393529 26.60560803 83.94692137 28.05563927 92.77109337 C28.91502559 97.99979893 29.77910079 103.22772404 30.64399719 108.45552063 C30.94440375 110.27158259 31.24481021 112.08764456 31.54521656 113.90370655 C31.69513825 114.80999951 31.84505994 115.71629247 31.99952471 116.65004885 C34.00017198 128.74583969 35.99739446 140.84218175 37.98461914 152.94018555 C39.34369285 161.2138474 40.70918895 169.48642179 42.08194858 177.75782424 C42.80217565 182.09907182 43.51922407 186.44078743 44.22824669 190.78388023 C44.89118125 194.84449652 45.5625957 198.90362232 46.24028397 202.96180153 C46.48525669 204.43779559 46.72722404 205.91429254 46.96574974 207.39134216 C49.6315134 223.87485406 52.65871917 238.41750267 66.4375 248.9375 C70.05898397 251.38044767 73.7719515 253.66146942 77.5 255.9375 C79.62802259 257.25322974 81.75561625 258.56965344 83.8828125 259.88671875 C84.96336914 260.55364746 86.04392578 261.22057617 87.15722656 261.90771484 C92.41416535 265.16063156 97.64901186 268.4476433 102.875 271.75 C103.82189697 272.34232422 104.76879395 272.93464844 105.74438477 273.54492188 C106.61119873 274.09341797 107.4780127 274.64191406 108.37109375 275.20703125 C109.5166272 275.92789917 109.5166272 275.92789917 110.68530273 276.66333008 C112.4375 277.9375 112.4375 277.9375 113.4375 279.9375 C112.78875916 280.74873322 112.14001831 281.55996643 111.47161865 282.39578247 C108.8377864 286.37445479 108.86198601 289.94253228 108.89160156 294.60498047 C108.87609505 295.87913567 108.87609505 295.87913567 108.86027527 297.17903137 C108.83090884 299.97111166 108.82934941 302.76246509 108.828125 305.5546875 C108.81313919 307.4966876 108.79641119 309.43867497 108.77801514 311.38064575 C108.73437452 316.48023065 108.71434976 321.57964363 108.69927979 326.67938232 C108.67969691 331.88792065 108.63772818 337.09627364 108.59765625 342.3046875 C108.52238971 352.51556779 108.47207664 362.72640652 108.4375 372.9375 C109.7575 373.2675 111.0775 373.5975 112.4375 373.9375 C110.7908333 379.62598498 108.13416563 384.69600936 105.4375 389.9375 C96.72135494 386.40172477 88.1647639 382.57336222 79.62646484 378.63430786 C65.94074375 372.32397084 52.20898502 366.12075724 38.4375 360 C37.25655762 359.47422867 37.25655762 359.47422867 36.05175781 358.93783569 C33.82692356 357.9477389 31.60116863 356.95974854 29.375 355.97265625 C28.71411377 355.67861908 28.05322754 355.38458191 27.37231445 355.08163452 C22.46968368 352.91390554 18.79691466 351.81709286 13.43359375 351.76171875 C-11.10428198 351.34076994 -35.24560454 349.32016528 -53.5625 330.9375 C-61.30927095 322.06641893 -67.65153356 310.9155913 -67.70967102 298.88545227 C-67.71682632 297.86643326 -67.72398163 296.84741425 -67.73135376 295.79751587 C-67.73404266 294.68524628 -67.73673157 293.57297668 -67.73950195 292.42700195 C-67.74607315 291.25093887 -67.75264435 290.07487579 -67.75941467 288.86317444 C-67.77914068 284.96738328 -67.79081359 281.07160563 -67.80078125 277.17578125 C-67.80483097 275.83126493 -67.80894795 274.48674881 -67.81313133 273.14223289 C-67.83217336 266.82309959 -67.84640538 260.50397789 -67.8547433 254.18482143 C-67.86450665 246.9067989 -67.89080635 239.62908124 -67.93124419 232.35116607 C-67.96147626 226.71532007 -67.97621894 221.07956111 -67.97952431 215.44363564 C-67.9818671 212.08252327 -67.99072553 208.72173694 -68.01598549 205.36071205 C-68.04036353 201.60521901 -68.03941363 197.85051885 -68.0324707 194.0949707 C-68.04528076 192.99282227 -68.05809082 191.89067383 -68.07128906 190.75512695 C-68.00792435 181.32756987 -65.13803308 172.89494535 -58.5625 165.9375 C-53.67296044 161.92626662 -49.83597775 159.87752792 -43.5625 158.9375 C-43.56618717 158.22942735 -43.56987434 157.52135469 -43.57367325 156.79182529 C-43.66212515 139.5391769 -43.72825857 122.28658633 -43.76974869 105.03376102 C-43.79034785 96.69031173 -43.81841761 88.34701406 -43.86425781 80.00366211 C-43.90420689 72.72906608 -43.92995204 65.4545799 -43.93885398 58.17987722 C-43.94405514 54.33021435 -43.95622391 50.48086567 -43.98542023 46.63130379 C-44.0127173 43.00250961 -44.02091649 39.37415688 -44.01493073 35.74526978 C-44.01654335 33.78958992 -44.03799103 31.83395734 -44.06018066 29.87840271 C-44.0119225 19.50528369 -41.56308641 12.30559133 -34.5 4.6640625 C-25.67037283 -3.20427462 -10.67432812 -5.02418222 0 0 Z " fill="#eca72c" transform="translate(339.5625,114.0625)"/>
<path d="M0 0 C7.81100706 4.68660423 12.58220546 10.30090449 15.4375 18.9375 C16.79432588 24.9426806 17.79094173 30.99545081 18.78442383 37.06958008 C19.08580769 38.85733399 19.38821694 40.64491531 19.69159412 42.43233204 C20.47053837 47.039847 21.23503109 51.64962918 21.99511385 56.26028872 C22.5484953 59.60921602 23.1091167 62.95690432 23.67041594 66.30451208 C25.14909474 75.12393529 26.60560803 83.94692137 28.05563927 92.77109337 C28.91502559 97.99979893 29.77910079 103.22772404 30.64399719 108.45552063 C30.94440375 110.27158259 31.24481021 112.08764456 31.54521656 113.90370655 C31.69513825 114.80999951 31.84505994 115.71629247 31.99952471 116.65004885 C34.00017198 128.74583969 35.99739446 140.84218175 37.98461914 152.94018555 C39.34369285 161.2138474 40.70918895 169.48642179 42.08194858 177.75782424 C42.80217565 182.09907182 43.51922407 186.44078743 44.22824669 190.78388023 C44.89118125 194.84449652 45.5625957 198.90362232 46.24028397 202.96180153 C46.48525669 204.43779559 46.72722404 205.91429254 46.96574974 207.39134216 C49.6315134 223.87485406 52.65871917 238.41750267 66.4375 248.9375 C70.05898397 251.38044767 73.7719515 253.66146942 77.5 255.9375 C79.62802259 257.25322974 81.75561625 258.56965344 83.8828125 259.88671875 C84.96336914 260.55364746 86.04392578 261.22057617 87.15722656 261.90771484 C92.41416535 265.16063156 97.64901186 268.4476433 102.875 271.75 C103.82189697 272.34232422 104.76879395 272.93464844 105.74438477 273.54492188 C106.61119873 274.09341797 107.4780127 274.64191406 108.37109375 275.20703125 C109.5166272 275.92789917 109.5166272 275.92789917 110.68530273 276.66333008 C112.4375 277.9375 112.4375 277.9375 113.4375 279.9375 C112.33716185 281.54429516 111.23207336 283.14783793 110.125 284.75 C109.51011719 285.64332031 108.89523437 286.53664063 108.26171875 287.45703125 C106.75300431 289.50849521 105.25356663 291.1751764 103.4375 292.9375 C102.27473958 292.203125 101.11197917 291.46875 99.94921875 290.734375 C99.18939697 290.25452148 98.4295752 289.77466797 97.64672852 289.28027344 C95.94527047 288.205599 94.24393873 287.13072459 92.54272461 286.05566406 C88.15376099 283.28249972 83.76304442 280.51222662 79.3671875 277.75 C38.93165308 252.32648448 38.93165308 252.32648448 32.86826086 228.72142649 C31.56542634 222.74302324 30.64320135 216.69990382 29.69873047 210.65673828 C29.37095184 208.64771501 29.04153905 206.6389578 28.71063232 204.63044739 C28.00623945 200.33412383 27.31304432 196.03620228 26.62871933 191.73663712 C25.54563016 184.93357056 24.43579256 178.13502955 23.32229614 171.33688354 C21.16456504 158.14087731 19.03353841 144.94062876 16.9055481 131.7397995 C14.19212911 114.91476569 11.46709425 98.09165135 8.71695244 81.27257907 C7.6133841 74.51786403 6.52325544 67.76115901 5.44369864 61.00256658 C4.76984541 56.79989371 4.08523679 52.5990234 3.39781952 48.39855003 C3.08201747 46.45467756 2.77072273 44.51006649 2.4643364 42.56468773 C2.04462502 39.90363664 1.608728 37.24571276 1.16891479 34.58792114 C1.05236664 33.82312915 0.93581848 33.05833716 0.81573856 32.27036965 C-0.22543001 26.14899488 -2.06510058 20.1574106 -6.8125 15.9375 C-10.47158605 14.60692326 -13.75247839 14.26514324 -17.5625 14.9375 C-22.05058376 17.22388229 -24.33121685 19.46799815 -26.5625 23.9375 C-27.00013898 26.69894081 -27.00013898 26.69894081 -26.92326355 29.66389465 C-26.92944954 31.37807083 -26.92944954 31.37807083 -26.9357605 33.12687683 C-26.92497467 34.37125015 -26.91418884 35.61562347 -26.90307617 36.89770508 C-26.90351425 38.21516724 -26.90395233 39.53262939 -26.90440369 40.89001465 C-26.90526335 44.49509883 -26.88764251 48.09988269 -26.86668181 51.70489717 C-26.8479101 55.47518018 -26.84616419 59.24547031 -26.84260559 63.01579285 C-26.83328656 70.15201004 -26.80867476 77.28808912 -26.77855712 84.42424554 C-26.74500864 92.54994312 -26.72852598 100.67564735 -26.71347082 108.80139697 C-26.68212504 125.51351212 -26.62936738 142.22548843 -26.5625 158.9375 C-25.8725293 159.27885986 -25.18255859 159.62021973 -24.47167969 159.97192383 C-23.56836914 160.42075928 -22.66505859 160.86959473 -21.734375 161.33203125 C-20.8381543 161.77651611 -19.94193359 162.22100098 -19.01855469 162.67895508 C-11.00791873 166.78380879 -6.33935017 174.49521096 -3.5625 182.9375 C-3.38587207 185.5816186 -3.30909854 188.11586714 -3.33544922 190.75708008 C-3.33515717 191.52834229 -3.33486511 192.29960449 -3.33456421 193.09423828 C-3.33595248 195.63195219 -3.35148985 198.16936891 -3.3671875 200.70703125 C-3.37091942 202.47108296 -3.37376555 204.23513675 -3.37576294 205.99919128 C-3.3833853 210.63359335 -3.40302179 215.26786931 -3.4251709 219.90222168 C-3.44565943 224.63466689 -3.45477109 229.36713256 -3.46484375 234.09960938 C-3.48626902 243.37897046 -3.52143977 252.658205 -3.5625 261.9375 C-8.8425 261.9375 -14.1225 261.9375 -19.5625 261.9375 C-19.57651855 258.48579346 -19.57651855 258.48579346 -19.59082031 254.96435547 C-19.62462102 247.35264578 -19.68018712 239.74120633 -19.74640274 232.12971306 C-19.78587473 227.5158231 -19.81806453 222.9021239 -19.83349609 218.28808594 C-19.84866459 213.83339723 -19.88311332 209.37923301 -19.93080902 204.92477798 C-19.94562087 203.22722055 -19.95354091 201.52958824 -19.95438385 199.8319664 C-19.95675594 197.44974925 -19.98385257 195.0689787 -20.01660156 192.68701172 C-20.0115712 191.98857651 -20.00654083 191.2901413 -20.00135803 190.57054138 C-20.10676309 185.59956562 -21.49112462 182.79204434 -24.5625 178.9375 C-28.829475 175.18773409 -32.75799728 174.57945938 -38.28125 174.66015625 C-43.03012527 175.23750239 -45.6844993 177.92184591 -48.69812012 181.40794373 C-51.27188258 186.28046972 -51.12342022 190.35413511 -51.08007812 195.78540039 C-51.0870874 196.86754822 -51.09409668 197.94969604 -51.10131836 199.06463623 C-51.11890591 202.63840494 -51.10726635 206.21137958 -51.09375 209.78515625 C-51.09644605 212.27892712 -51.10032941 214.77269696 -51.10534668 217.26646423 C-51.11199874 223.16535327 -51.09801495 229.06395621 -51.0767436 234.9628033 C-51.05754058 240.96888563 -51.07667183 246.974473 -51.09827423 252.98055363 C-51.11279655 258.13413776 -51.10809532 263.28757129 -51.09776306 268.4411602 C-51.09510923 270.90052811 -51.09831781 273.35991004 -51.10768127 275.81926155 C-51.57431215 299.12650557 -51.57431215 299.12650557 -40.5625 318.9375 C-40.07265625 319.46730469 -39.5828125 319.99710937 -39.078125 320.54296875 C-25.5305708 333.5875197 -5.89639049 334.42067842 11.734375 334.20117188 C21.7324351 334.29596386 29.50956961 336.77501366 38.4375 340.9375 C39.74521416 341.52340951 41.05398824 342.10695861 42.36376953 342.68823242 C45.80338865 344.22347137 49.22663232 345.79196153 52.64541626 347.37298584 C54.87681083 348.40473598 57.11034923 349.43171406 59.34448242 350.45751953 C62.46611987 351.89106093 65.58710549 353.32600462 68.70751953 354.76220703 C75.66074332 357.96126107 82.61956404 361.14797681 89.58355713 364.32351685 C91.70772497 365.29320141 93.83019487 366.266535 95.95263672 367.23999023 C97.25608921 367.83468243 98.55963249 368.42917568 99.86328125 369.0234375 C100.99161377 369.5395459 102.11994629 370.0556543 103.2824707 370.58740234 C106.29651776 371.87717099 109.31275712 372.95042893 112.4375 373.9375 C110.7908333 379.62598498 108.13416563 384.69600936 105.4375 389.9375 C96.72135494 386.40172477 88.1647639 382.57336222 79.62646484 378.63430786 C65.94074375 372.32397084 52.20898502 366.12075724 38.4375 360 C37.25655762 359.47422867 37.25655762 359.47422867 36.05175781 358.93783569 C33.82692356 357.9477389 31.60116863 356.95974854 29.375 355.97265625 C28.71411377 355.67861908 28.05322754 355.38458191 27.37231445 355.08163452 C22.46968368 352.91390554 18.79691466 351.81709286 13.43359375 351.76171875 C-11.10428198 351.34076994 -35.24560454 349.32016528 -53.5625 330.9375 C-61.30927095 322.06641893 -67.65153356 310.9155913 -67.70967102 298.88545227 C-67.71682632 297.86643326 -67.72398163 296.84741425 -67.73135376 295.79751587 C-67.73404266 294.68524628 -67.73673157 293.57297668 -67.73950195 292.42700195 C-67.74607315 291.25093887 -67.75264435 290.07487579 -67.75941467 288.86317444 C-67.77914068 284.96738328 -67.79081359 281.07160563 -67.80078125 277.17578125 C-67.80483097 275.83126493 -67.80894795 274.48674881 -67.81313133 273.14223289 C-67.83217336 266.82309959 -67.84640538 260.50397789 -67.8547433 254.18482143 C-67.86450665 246.9067989 -67.89080635 239.62908124 -67.93124419 232.35116607 C-67.96147626 226.71532007 -67.97621894 221.07956111 -67.97952431 215.44363564 C-67.9818671 212.08252327 -67.99072553 208.72173694 -68.01598549 205.36071205 C-68.04036353 201.60521901 -68.03941363 197.85051885 -68.0324707 194.0949707 C-68.04528076 192.99282227 -68.05809082 191.89067383 -68.07128906 190.75512695 C-68.00792435 181.32756987 -65.13803308 172.89494535 -58.5625 165.9375 C-53.67296044 161.92626662 -49.83597775 159.87752792 -43.5625 158.9375 C-43.56618717 158.22942735 -43.56987434 157.52135469 -43.57367325 156.79182529 C-43.66212515 139.5391769 -43.72825857 122.28658633 -43.76974869 105.03376102 C-43.79034785 96.69031173 -43.81841761 88.34701406 -43.86425781 80.00366211 C-43.90420689 72.72906608 -43.92995204 65.4545799 -43.93885398 58.17987722 C-43.94405514 54.33021435 -43.95622391 50.48086567 -43.98542023 46.63130379 C-44.0127173 43.00250961 -44.02091649 39.37415688 -44.01493073 35.74526978 C-44.01654335 33.78958992 -44.03799103 31.83395734 -44.06018066 29.87840271 C-44.0119225 19.50528369 -41.56308641 12.30559133 -34.5 4.6640625 C-25.67037283 -3.20427462 -10.67432812 -5.02418222 0 0 Z " fill="#000000" transform="translate(339.5625,114.0625)"/>
<path d="M0 0 C9.99434792 8.12517598 18.33188553 21.46267294 19.859375 34.4140625 C20.82224264 52.64708808 17.17481474 68.42019826 4.859375 82.4140625 C-1.71489366 88.82871311 -8.5627512 93.19735983 -17.140625 96.4140625 C-17.8934375 96.73246094 -18.64625 97.05085938 -19.421875 97.37890625 C-32.98767874 102.41962442 -48.31311525 99.9129357 -61.1015625 94.05859375 C-75.62843889 86.63595691 -84.98386682 74.86434962 -90.140625 59.4140625 C-94.71612762 44.31013357 -92.47307338 29.63544974 -85.390625 15.6640625 C-77.33259829 1.80425655 -64.46039806 -7.61318255 -49.015625 -11.8984375 C-30.83304937 -15.21026378 -14.81220957 -10.97400928 0 0 Z " fill="#6A7F97" transform="translate(204.140625,348.5859375)"/>
<path d="M0 0 C0.08636719 0.8971875 0.17273438 1.794375 0.26171875 2.71875 C2.51246375 22.7070175 8.94890515 39.86694946 24 54 C26.74516948 56.17876587 29.53373051 58.22639377 32.421875 60.2109375 C35.04760391 62.03303423 37.51402455 63.99305489 40 66 C39.35901367 66.27260147 38.71802734 66.54520294 38.05761719 66.82606506 C31.94033531 69.42782354 25.82339651 72.03038685 19.70681763 74.63379765 C16.56416601 75.97137854 13.42139426 77.30867546 10.27832031 78.64526367 C6.64355259 80.19112604 3.00918121 81.73791559 -0.625 83.28515625 C-1.79756348 83.78407379 -2.97012695 84.28299133 -4.17822266 84.79702759 C-11.33174561 87.84600267 -18.47175923 90.92287082 -25.56103516 94.11891174 C-29.78521241 96 -29.78521241 96 -32 96 C-32 67.62 -32 39.24 -32 10 C-30.35 11.65 -28.7 13.3 -27 15 C-25.92516357 14.37170288 -25.92516357 14.37170288 -24.82861328 13.73071289 C-21.59445225 11.84066309 -18.35973358 9.95156973 -15.125 8.0625 C-13.99707031 7.40314453 -12.86914062 6.74378906 -11.70703125 6.06445312 C-10.63066406 5.43603516 -9.55429688 4.80761719 -8.4453125 4.16015625 C-7.45031738 3.57886963 -6.45532227 2.99758301 -5.43017578 2.39868164 C-1.262524 0 -1.262524 0 0 0 Z " fill="#A0B4CA" transform="translate(96,391)"/>
<path d="M0 0 C6.94410235 4.73734098 10.38044651 10.14133953 13 18 C13.93706724 28.23093083 12.18047923 35.3222249 5.75 43.3125 C1.20275579 48.23214783 -4.85276334 51.62014799 -11.6015625 52.23828125 C-21.91874373 52.49154539 -28.68978326 49.9582934 -36.2734375 42.93359375 C-41.97630521 36.54689801 -43.38422577 29.20627794 -43.2734375 20.875 C-42.49506832 12.69100402 -37.78987552 6.55408873 -32 1 C-22.2735762 -6.11689546 -10.26695802 -5.77197143 0 0 Z " fill="#020202" transform="translate(183,368)"/>
<path d="M0 0 C15.51 0 31.02 0 47 0 C47 5.28 47 10.56 47 16 C45.01226562 16.03867187 45.01226562 16.03867187 42.984375 16.078125 C41.23955056 16.13440966 39.49476017 16.19175692 37.75 16.25 C36.87730469 16.26417969 36.00460938 16.27835937 35.10546875 16.29296875 C33.83896484 16.34130859 33.83896484 16.34130859 32.546875 16.390625 C31.77182617 16.41157227 30.99677734 16.43251953 30.19824219 16.45410156 C26.94133801 17.26290184 25.90215573 18.2081946 24 21 C23.39003223 24.2614543 23.3950471 27.48588401 23.390625 30.796875 C23.37408875 31.74564514 23.35755249 32.69441528 23.34051514 33.67193604 C23.29198561 36.69802288 23.27065305 39.72360701 23.25 42.75 C23.22184449 44.80341078 23.19191765 46.85679808 23.16015625 48.91015625 C23.08622516 53.94006279 23.03668067 58.96968944 23 64 C21.75605469 64.04898438 20.51210937 64.09796875 19.23046875 64.1484375 C10.35058665 64.53467446 1.69307991 64.98789386 -7 67 C-4.70114564 44.66297503 -2.35492546 22.33118971 0 0 Z " fill="#A1B5CA" transform="translate(153,256)"/>
<path d="M0 0 C13.2 0 26.4 0 40 0 C40 15.84 40 31.68 40 48 C25.15 48 10.3 48 -5 48 C-2.70061728 23.85648148 -2.70061728 23.85648148 -1.375 12.1875 C-0.92125 8.165625 -0.4675 4.14375 0 0 Z " fill="#596B7F" transform="translate(160,192)"/>
<path d="M0 0 C10.89 0 21.78 0 33 0 C33 15.84 33 31.68 33 48 C20.46 48 7.92 48 -5 48 C-3.87380862 33.35951201 -3.87380862 33.35951201 -3.28125 27.8515625 C-3.15363281 26.66175781 -3.02601563 25.47195312 -2.89453125 24.24609375 C-2.76433594 23.05113281 -2.63414062 21.85617188 -2.5 20.625 C-2.36980469 19.40683594 -2.23960937 18.18867188 -2.10546875 16.93359375 C-1.49370063 11.26701433 -0.80644829 5.64513801 0 0 Z " fill="#A1B5CB" transform="translate(167,128)"/>
<path d="M0 0 C10.56 0 21.12 0 32 0 C32 19.14 32 38.28 32 58 C25 52 25 52 22.55078125 49.875 C15.76314912 44.18902544 8.4317025 39.8105675 0 37 C0 24.79 0 12.58 0 0 Z " fill="#596B7F" transform="translate(192,288)"/>
<path d="M0 0 C3.4830355 2.01063328 6.65926155 4.19314719 9.8125 6.6875 C10.60269531 7.31011719 11.39289063 7.93273437 12.20703125 8.57421875 C12.79871094 9.04472656 13.39039063 9.51523437 14 10 C12.66477642 12.85972567 11.15297638 15.25532618 9.19921875 17.73046875 C8.64032959 18.44299805 8.08144043 19.15552734 7.50561523 19.88964844 C6.90563721 20.64793945 6.30565918 21.40623047 5.6875 22.1875 C4.42120603 23.80025622 3.15559799 25.41355121 1.890625 27.02734375 C1.24544922 27.84960449 0.60027344 28.67186523 -0.06445312 29.51904297 C-3.63387453 34.09427761 -7.14161094 38.71672216 -10.64770508 43.34057617 C-13.67105444 47.31363302 -16.77466698 51.1887808 -20 55 C-23.9520518 54.41827275 -26.22095053 52.44842259 -29.25 49.9375 C-30.58804687 48.83728516 -30.58804687 48.83728516 -31.953125 47.71484375 C-32.62859375 47.14894531 -33.3040625 46.58304688 -34 46 C-32.56503929 41.67943524 -30.41188293 38.85873858 -27.4375 35.4375 C-23.26104115 30.55480023 -19.34031649 25.54499134 -15.515625 20.37890625 C-12.36981249 16.13362445 -9.15065799 11.94438793 -5.9375 7.75 C-5.35250732 6.98598877 -4.76751465 6.22197754 -4.16479492 5.43481445 C-2.7770047 3.62284503 -1.38875834 1.81122747 0 0 Z " fill="#000000" transform="translate(314,22)"/>
<path d="M0 0 C1.58433756 1.86159663 3.04855356 3.72571878 4.5 5.6875 C5.41131919 6.89593828 6.32278122 8.10426885 7.234375 9.3125 C7.69779297 9.93125 8.16121094 10.55 8.63867188 11.1875 C10.65411469 13.87090162 12.70186885 16.52899864 14.75 19.1875 C15.14356689 19.70256104 15.53713379 20.21762207 15.94262695 20.74829102 C18.51300617 24.10460828 21.13053742 27.41838478 23.77734375 30.71484375 C24.42413086 31.52735596 25.07091797 32.33986816 25.73730469 33.17700195 C27.02255046 34.79031685 28.3160105 36.3971269 29.61816406 37.99682617 C30.20178711 38.73263916 30.78541016 39.46845215 31.38671875 40.2265625 C31.91483154 40.88221191 32.44294434 41.53786133 32.98706055 42.21337891 C33.32133057 42.80296387 33.65560059 43.39254883 34 44 C32.68774191 47.93677426 30.8038606 48.8271782 27.4375 51.1875 C26.42558594 51.90292969 25.41367188 52.61835937 24.37109375 53.35546875 C23.58863281 53.89816406 22.80617187 54.44085938 22 55 C17.58528633 53.43819092 15.26074472 49.94525582 12.5 46.375 C11.97954102 45.71346924 11.45908203 45.05193848 10.92285156 44.37036133 C6.61437934 38.86573819 2.41956371 33.27553933 -1.75292969 27.66748047 C-5.7165801 22.34520372 -9.80002408 17.13879406 -14 12 C-12.48238697 8.17147621 -10.20656585 6.26678134 -7 3.75 C-6.113125 3.04359375 -5.22625 2.3371875 -4.3125 1.609375 C-2 0 -2 0 0 0 Z " fill="#000000" transform="translate(198,22)"/>
<path d="M0 0 C5.28 0 10.56 0 16 0 C16 18.48 16 36.96 16 56 C10.72 56 5.44 56 0 56 C0 37.52 0 19.04 0 0 Z " fill="#000000" transform="translate(248,8)"/>
<path d="M0 0 C3.3258409 2.062783 6.23502468 4.47004936 8 8 C8.79674298 14.71540516 8.79674298 14.71540516 6.73046875 18.046875 C3.40766769 21.95985727 1.56547947 23.81426515 -3.6875 24.4375 C-8.19692446 24.40458449 -10.42486187 22.5829862 -13.65234375 19.60546875 C-15.71006082 17.15410146 -16.0156376 14.88383497 -16.4375 11.75 C-15.8560227 6.76590888 -13.62718402 4.32648483 -10 1 C-6.7374887 -0.63125565 -3.5120384 -0.68851113 0 0 Z " fill="#ECECEC" transform="translate(172,380)"/>
</svg>
